<mxfile host="Electron" agent="Mozilla/5.0 (Macintosh; Intel Mac OS X 10_15_7) AppleWebKit/537.36 (KHTML, like Gecko) draw.io/28.0.4 Chrome/138.0.7204.97 Electron/37.2.1 Safari/537.36" version="28.0.4" pages="4">
  <diagram id="57127ce4c7e54414" name="Mqtt Graph Tb">
    <mxGraphModel dx="706" dy="604" grid="1" gridSize="10" guides="1" tooltips="1" connect="1" arrows="1" fold="1" page="1" pageScale="1" pageWidth="827" pageHeight="1169" math="0" shadow="0">
      <root>
        <mxCell id="0" />
        <mxCell id="1" parent="0" />
        <UserObject label="" mermaidData="{&quot;data&quot;:&quot;graph TB\n    subgraph \&quot;MQTT Broker\&quot;\n        BROKER[MQTT Broker]\n        TOPICS[Topic Tree]\n        SUBS[Subscriptions]\n        RETAINED[Retained Messages]\n    end\n    \n    subgraph \&quot;MQTT Clients\&quot;\n        PUB[Publishers]\n        SUB[Subscribers]\n        PUBSUB[Pub/Sub Clients]\n    end\n    \n    PUB --&gt; BROKER\n    BROKER --&gt; SUB\n    PUBSUB --&gt; BROKER\n    \n    BROKER --&gt; TOPICS\n    TOPICS --&gt; SUBS\n    SUBS --&gt; RETAINED&quot;}" id="3adc7e13cf6b4413">
          <mxCell style="shape=image;noLabel=1;verticalAlign=top;imageAspect=1;image=data:image/svg+xml,PHN2ZyB3aWR0aD0iMjAwIiBoZWlnaHQ9IjIwMCIgeG1sbnM9Imh0dHA6Ly93d3cudzMub3JnLzIwMDAvc3ZnIj48cmVjdCB3aWR0aD0iMjAwIiBoZWlnaHQ9IjIwMCIgZmlsbD0iI2Y5ZjlmOSIgc3Ryb2tlPSIjY2NjIi8+PHRleHQgeD0iMTAwIiB5PSIxMDAiIHRleHQtYW5jaG9yPSJtaWRkbGUiIGZvbnQtZmFtaWx5PSJBcmlhbCIgZm9udC1zaXplPSIxNCIgZmlsbD0iIzMzMyI+TWVybWFpZCBEaWFncmFtPC90ZXh0Pjwvc3ZnPg==;" vertex="1" parent="1">
            <mxGeometry x="260" y="130" width="200" height="200" as="geometry" />
          </mxCell>
        </UserObject>
      </root>
    </mxGraphModel>
  </diagram>
  <diagram id="ac55eab86a954647" name="Mqtt Graph Tb 2">
    <mxGraphModel dx="706" dy="604" grid="1" gridSize="10" guides="1" tooltips="1" connect="1" arrows="1" fold="1" page="1" pageScale="1" pageWidth="827" pageHeight="1169" math="0" shadow="0">
      <root>
        <mxCell id="0" />
        <mxCell id="1" parent="0" />
        <UserObject label="" mermaidData="{&quot;data&quot;:&quot;graph TB\n    subgraph \&quot;MQTT Broker\&quot;\n        CORE[MQTT Core]\n        \n        subgraph \&quot;Components\&quot;\n            AUTH[Authentication]\n            TOPICS[Topic Management]\n            SUBS[Subscription Manager]\n            STORE[Message Store]\n        end\n        \n        subgraph \&quot;Protocols\&quot;\n            TCP[TCP/IP]\n            WS[WebSocket]\n            SSL[SSL/TLS]\n        end\n    end\n    \n    subgraph \&quot;IoT Devices\&quot;\n        SENSOR[Sensors]\n        ACTUATOR[Actuators]\n        GATEWAY[IoT Gateway]\n    end\n    \n    subgraph \&quot;Applications\&quot;\n        MOBILE[Mobile Apps]\n        WEB[Web Apps]\n        BACKEND[Backend Services]\n    end\n    \n    SENSOR --&gt; TCP\n    ACTUATOR --&gt; TCP\n    GATEWAY --&gt; TCP\n    \n    MOBILE --&gt; WS\n    WEB --&gt; WS\n    BACKEND --&gt; SSL\n    \n    TCP --&gt; CORE\n    WS --&gt; CORE\n    SSL --&gt; CORE\n    \n    CORE --&gt; AUTH\n    CORE --&gt; TOPICS\n    CORE --&gt; SUBS\n    CORE --&gt; STORE&quot;}" id="3eb792eb9c054991">
          <mxCell style="shape=image;noLabel=1;verticalAlign=top;imageAspect=1;image=data:image/svg+xml,PHN2ZyB3aWR0aD0iMjAwIiBoZWlnaHQ9IjIwMCIgeG1sbnM9Imh0dHA6Ly93d3cudzMub3JnLzIwMDAvc3ZnIj48cmVjdCB3aWR0aD0iMjAwIiBoZWlnaHQ9IjIwMCIgZmlsbD0iI2Y5ZjlmOSIgc3Ryb2tlPSIjY2NjIi8+PHRleHQgeD0iMTAwIiB5PSIxMDAiIHRleHQtYW5jaG9yPSJtaWRkbGUiIGZvbnQtZmFtaWx5PSJBcmlhbCIgZm9udC1zaXplPSIxNCIgZmlsbD0iIzMzMyI+TWVybWFpZCBEaWFncmFtPC90ZXh0Pjwvc3ZnPg==;" vertex="1" parent="1">
            <mxGeometry x="260" y="130" width="200" height="200" as="geometry" />
          </mxCell>
        </UserObject>
      </root>
    </mxGraphModel>
  </diagram>
  <diagram id="ebf1e407a7e44378" name="Mqtt Graph Tb 3">
    <mxGraphModel dx="706" dy="604" grid="1" gridSize="10" guides="1" tooltips="1" connect="1" arrows="1" fold="1" page="1" pageScale="1" pageWidth="827" pageHeight="1169" math="0" shadow="0">
      <root>
        <mxCell id="0" />
        <mxCell id="1" parent="0" />
        <UserObject label="" mermaidData="{&quot;data&quot;:&quot;graph TB\n    subgraph \&quot;MQTT Cluster\&quot;\n        subgraph \&quot;Load Balancer\&quot;\n            LB[Load Balancer]\n        end\n        \n        subgraph \&quot;MQTT Brokers\&quot;\n            B1[Broker 1]\n            B2[Broker 2]\n            B3[Broker 3]\n        end\n        \n        subgraph \&quot;Shared Storage\&quot;\n            DB[Database]\n            CACHE[Redis Cache]\n        end\n        \n        subgraph \&quot;Monitoring\&quot;\n            MON[Monitoring]\n            LOGS[Log Aggregation]\n        end\n    end\n    \n    subgraph \&quot;Clients\&quot;\n        IOT[IoT Devices]\n        APPS[Applications]\n    end\n    \n    IOT --&gt; LB\n    APPS --&gt; LB\n    \n    LB --&gt; B1\n    LB --&gt; B2\n    LB --&gt; B3\n    \n    B1 --&gt; DB\n    B2 --&gt; DB\n    B3 --&gt; DB\n    \n    B1 --&gt; CACHE\n    B2 --&gt; CACHE\n    B3 --&gt; CACHE\n    \n    B1 --&gt; MON\n    B2 --&gt; MON\n    B3 --&gt; MON\n    \n    MON --&gt; LOGS&quot;}" id="728da9560ce94b81">
          <mxCell style="shape=image;noLabel=1;verticalAlign=top;imageAspect=1;image=data:image/svg+xml,PHN2ZyB3aWR0aD0iMjAwIiBoZWlnaHQ9IjIwMCIgeG1sbnM9Imh0dHA6Ly93d3cudzMub3JnLzIwMDAvc3ZnIj48cmVjdCB3aWR0aD0iMjAwIiBoZWlnaHQ9IjIwMCIgZmlsbD0iI2Y5ZjlmOSIgc3Ryb2tlPSIjY2NjIi8+PHRleHQgeD0iMTAwIiB5PSIxMDAiIHRleHQtYW5jaG9yPSJtaWRkbGUiIGZvbnQtZmFtaWx5PSJBcmlhbCIgZm9udC1zaXplPSIxNCIgZmlsbD0iIzMzMyI+TWVybWFpZCBEaWFncmFtPC90ZXh0Pjwvc3ZnPg==;" vertex="1" parent="1">
            <mxGeometry x="260" y="130" width="200" height="200" as="geometry" />
          </mxCell>
        </UserObject>
      </root>
    </mxGraphModel>
  </diagram>
  <diagram id="8e92b9226bea4d7c" name="Mqtt Graph Tb 4">
    <mxGraphModel dx="706" dy="604" grid="1" gridSize="10" guides="1" tooltips="1" connect="1" arrows="1" fold="1" page="1" pageScale="1" pageWidth="827" pageHeight="1169" math="0" shadow="0">
      <root>
        <mxCell id="0" />
        <mxCell id="1" parent="0" />
        <UserObject label="" mermaidData="{&quot;data&quot;:&quot;graph TB\n    subgraph \&quot;Production Environment\&quot;\n        subgraph \&quot;Availability Zone 1\&quot;\n            B1[Broker 1]\n            LB1[Load Balancer 1]\n        end\n        \n        subgraph \&quot;Availability Zone 2\&quot;\n            B2[Broker 2]\n            LB2[Load Balancer 2]\n        end\n        \n        subgraph \&quot;Availability Zone 3\&quot;\n            B3[Broker 3]\n            LB3[Load Balancer 3]\n        end\n        \n        subgraph \&quot;Data Layer\&quot;\n            DB[PostgreSQL Cluster]\n            REDIS[Redis Cluster]\n        end\n        \n        subgraph \&quot;Monitoring\&quot;\n            PROM[Prometheus]\n            GRAF[Grafana]\n            ALERT[AlertManager]\n        end\n    end\n    \n    subgraph \&quot;Edge Devices\&quot;\n        IOT[IoT Devices]\n        SENSORS[Sensors]\n        GATEWAYS[Gateways]\n    end\n    \n    IOT --&gt; LB1\n    SENSORS --&gt; LB2\n    GATEWAYS --&gt; LB3\n    \n    LB1 --&gt; B1\n    LB2 --&gt; B2\n    LB3 --&gt; B3\n    \n    B1 --&gt; DB\n    B2 --&gt; DB\n    B3 --&gt; DB\n    \n    B1 --&gt; REDIS\n    B2 --&gt; REDIS\n    B3 --&gt; REDIS\n    \n    B1 --&gt; PROM\n    B2 --&gt; PROM\n    B3 --&gt; PROM\n    \n    PROM --&gt; GRAF\n    PROM --&gt; ALERT&quot;}" id="f3cbd40627f442cb">
          <mxCell style="shape=image;noLabel=1;verticalAlign=top;imageAspect=1;image=data:image/svg+xml,PHN2ZyB3aWR0aD0iMjAwIiBoZWlnaHQ9IjIwMCIgeG1sbnM9Imh0dHA6Ly93d3cudzMub3JnLzIwMDAvc3ZnIj48cmVjdCB3aWR0aD0iMjAwIiBoZWlnaHQ9IjIwMCIgZmlsbD0iI2Y5ZjlmOSIgc3Ryb2tlPSIjY2NjIi8+PHRleHQgeD0iMTAwIiB5PSIxMDAiIHRleHQtYW5jaG9yPSJtaWRkbGUiIGZvbnQtZmFtaWx5PSJBcmlhbCIgZm9udC1zaXplPSIxNCIgZmlsbD0iIzMzMyI+TWVybWFpZCBEaWFncmFtPC90ZXh0Pjwvc3ZnPg==;" vertex="1" parent="1">
            <mxGeometry x="260" y="130" width="200" height="200" as="geometry" />
          </mxCell>
        </UserObject>
      </root>
    </mxGraphModel>
  </diagram>
</mxfile>